<svg width="31" height="35" viewBox="0 0 31 35" fill="none" xmlns="http://www.w3.org/2000/svg">
<path id="Vector" d="M15.5 0.21167C12.4344 0.21167 9.43771 1.23182 6.88875 3.14312C4.33979 5.05442 2.35306 7.77102 1.1799 10.9494C0.0067412 14.1278 -0.300244 17.6251 0.297826 20.9993C0.895897 24.3734 2.37216 27.4728 4.53987 29.9054C6.70758 32.338 9.46944 33.9947 12.4761 34.6658C15.4828 35.337 18.5994 34.9925 21.4316 33.676C24.2639 32.3595 26.6846 30.13 28.3878 27.2695C30.0909 24.4091 31 21.0461 31 17.6059C31 15.3216 30.5991 13.0597 29.8202 10.9494C29.0412 8.83903 27.8995 6.92151 26.4602 5.30631C25.0209 3.69111 23.3122 2.40986 21.4316 1.53572C19.5511 0.661583 17.5355 0.21167 15.5 0.21167ZM15.5 25.885C14.0366 25.885 12.6061 25.3978 11.3896 24.485C10.1731 23.5722 9.2252 22.2749 8.66599 20.7572C8.10678 19.2396 7.96138 17.57 8.24817 15.9596C8.53496 14.3492 9.24105 12.8704 10.2771 11.7106C11.3131 10.5507 12.6325 9.76191 14.0682 9.44394C15.5039 9.12597 16.9914 9.29316 18.3424 9.92435C19.6934 10.5555 20.8472 11.6223 21.6576 12.9897C22.4681 14.3571 22.8988 15.9636 22.8953 17.6059C22.8766 19.7931 22.0892 21.8836 20.7043 23.4228C19.3195 24.962 17.4492 25.8254 15.5 25.8253V25.885Z" fill="#FFC200"/>
</svg>
